<?xml version="1.0" standalone="no"?>
<!DOCTYPE svg PUBLIC "-//W3C//DTD SVG 20010904//EN"
 "http://www.w3.org/TR/2001/REC-SVG-20010904/DTD/svg10.dtd">
<svg version="1.0" xmlns="http://www.w3.org/2000/svg"
 width="980.000000pt" height="980.000000pt" viewBox="0 0 980.000000 980.000000"
 preserveAspectRatio="xMidYMid meet">
<metadata>
Created by potrace 1.14, written by Peter Selinger 2001-2017
</metadata>
<g transform="translate(0.000000,980.000000) scale(0.100000,-0.100000)"
fill="#000000" stroke="none">
<path d="M4750 7887 c-212 -72 -308 -219 -326 -494 -6 -91 -10 -108 -30 -128
-63 -63 -31 -256 45 -271 27 -6 30 -11 36 -58 12 -95 36 -171 70 -222 l33 -51
-77 -51 c-42 -28 -89 -63 -105 -76 l-30 -25 58 -61 c31 -34 91 -108 133 -163
l77 -102 -125 120 c-135 130 -234 202 -374 270 -112 54 -184 74 -300 82 -81 5
-223 -8 -247 -23 -5 -3 -3 -13 6 -22 18 -21 51 -97 61 -142 6 -30 1 -25 -43
40 -56 83 -124 140 -204 173 -113 45 -406 20 -471 -41 -39 -36 -74 -108 -93
-189 -9 -38 -18 -70 -21 -73 -3 -3 -3 29 -1 70 4 54 12 89 31 125 27 55 95
128 138 150 15 8 30 26 33 40 12 48 98 241 149 334 55 98 149 211 199 237 l30
16 -33 35 -34 36 44 -32 c24 -17 49 -31 55 -31 7 0 41 19 77 43 l65 42 -28 45
c-30 47 -41 93 -12 50 10 -14 33 -42 52 -62 l35 -37 -23 -19 -24 -19 24 -13
c54 -29 89 -30 120 -4 47 40 47 57 -4 130 -25 36 -46 68 -46 71 0 12 53 -42
92 -95 42 -56 41 -68 -2 -107 -20 -18 -20 -20 -3 -26 46 -19 71 -10 103 36
l31 45 -41 60 c-53 77 -39 76 24 -2 l49 -61 -21 -38 -21 -37 22 -6 c37 -10 42
-7 67 38 l24 44 -30 42 c-16 22 -35 50 -43 61 -27 38 -4 18 52 -45 l56 -63
-36 -54 c-20 -30 -37 -55 -37 -56 -1 -1 -21 3 -45 8 -28 6 -48 6 -54 0 -5 -5
-25 -7 -44 -4 -42 7 -80 -12 -99 -49 -22 -42 -17 -54 25 -66 67 -20 100 -15
135 21 18 17 35 37 37 43 3 8 19 10 51 5 l48 -8 51 74 51 75 -47 66 c-26 37
-71 104 -102 148 l-54 81 -134 7 c-204 11 -311 -7 -400 -68 -33 -22 -80 -50
-105 -61 -79 -34 -381 -205 -500 -283 -238 -155 -410 -315 -495 -460 -46 -78
-95 -212 -95 -259 0 -14 -13 -42 -30 -63 -87 -110 -57 -204 94 -299 90 -56
279 -101 429 -101 70 0 96 -19 30 -21 -21 -1 -87 -4 -148 -8 l-110 -6 60 -58
c121 -117 336 -241 498 -288 91 -26 261 -36 339 -20 134 28 255 123 324 254
l37 70 -39 -7 c-196 -33 -364 -32 -514 4 -85 21 -244 91 -290 129 -19 15 -5
12 55 -14 201 -86 487 -126 651 -92 77 16 111 38 122 79 8 31 8 31 45 -45 23
-48 62 -167 103 -315 104 -382 169 -548 270 -700 25 -37 48 -71 51 -75 15 -24
-38 18 -79 61 -129 138 -240 387 -327 734 -38 152 -38 152 -54 122 -18 -34
-84 -105 -121 -129 -22 -15 -26 -25 -26 -65 0 -155 154 -540 310 -774 111
-167 158 -284 185 -468 24 -161 14 -453 -20 -589 -6 -25 0 -31 77 -82 112 -74
229 -131 351 -172 161 -53 237 -66 422 -72 261 -8 436 26 660 128 114 51 251
137 248 155 -1 5 -9 50 -18 99 -23 128 -31 375 -15 499 24 192 75 330 181 487
158 235 299 579 316 769 l5 65 -43 33 c-24 17 -62 57 -83 87 l-40 54 -42 -167
c-98 -387 -239 -669 -387 -774 -24 -17 -20 -8 28 63 110 162 169 310 265 660
77 282 87 311 134 398 l18 35 13 -32 c16 -37 51 -57 130 -71 165 -31 444 10
638 93 109 47 67 11 -59 -50 -143 -69 -237 -88 -434 -88 -116 0 -184 5 -227
16 -35 8 -63 13 -63 11 0 -3 16 -36 36 -74 68 -130 187 -222 322 -250 78 -16
248 -6 342 21 160 44 369 167 493 287 l60 58 -138 7 c-76 4 -142 11 -147 16
-5 5 35 11 99 15 214 12 363 62 461 154 84 80 92 166 23 246 -18 21 -31 49
-35 80 -38 254 -252 495 -666 750 -135 82 -264 154 -393 219 -55 27 -120 64
-145 83 -73 51 -192 70 -387 59 l-134 -7 -55 -81 c-30 -44 -76 -111 -101 -148
l-47 -67 51 -74 50 -74 48 7 c33 5 49 4 52 -4 2 -6 19 -26 37 -43 35 -36 68
-41 135 -21 42 12 47 24 25 66 -19 37 -57 56 -99 49 -19 -3 -39 -1 -43 3 -5 5
-28 5 -53 -1 -24 -5 -45 -8 -46 -7 -1 2 -18 27 -38 57 l-36 54 37 41 c65 74
72 80 72 70 0 -5 -16 -29 -35 -53 -19 -24 -35 -48 -35 -54 0 -7 31 -65 46 -85
1 -2 16 -1 33 3 l31 7 -22 38 -22 38 53 61 c29 33 55 61 57 61 3 0 -13 -27
-36 -59 l-40 -60 28 -45 c28 -47 46 -54 99 -40 23 6 23 6 -7 42 -29 35 -29 36
-12 65 22 38 103 129 109 123 3 -3 -16 -34 -41 -69 -25 -36 -46 -70 -46 -76 0
-7 16 -27 35 -46 31 -28 40 -32 68 -25 18 4 43 13 57 20 l24 13 -24 19 -23 19
35 37 c19 20 42 48 52 62 29 43 18 -3 -12 -50 l-28 -45 65 -42 c73 -48 83 -48
146 0 l40 30 -39 -41 -38 -40 30 -16 c97 -50 225 -250 325 -509 28 -73 39 -90
73 -112 92 -62 143 -150 151 -264 3 -42 3 -74 0 -71 -3 3 -12 36 -21 73 -18
78 -44 133 -86 180 -25 29 -43 37 -112 53 -123 28 -294 26 -370 -5 -90 -35
-177 -117 -231 -217 -9 -16 -16 -24 -17 -18 0 22 41 130 60 156 11 15 20 29
20 31 0 2 -38 10 -84 17 -294 46 -593 -83 -878 -378 -43 -44 -78 -76 -78 -72
0 13 148 201 204 258 l51 52 -30 25 c-17 14 -64 49 -106 77 l-77 51 33 51 c34
51 58 127 70 222 6 47 9 52 36 58 76 15 108 208 45 271 -20 20 -24 38 -30 130
-13 188 -53 294 -147 386 -84 83 -181 122 -314 126 -83 2 -111 -1 -165 -20z"/>
<path d="M3511 7378 l-34 -22 27 -21 c14 -11 58 -38 96 -59 67 -36 70 -37 70
-15 0 12 16 37 37 57 l37 34 -31 -6 c-38 -9 -102 7 -136 34 -30 24 -25 24 -66
-2z"/>
<path d="M6222 7380 c-32 -26 -96 -43 -135 -35 l-32 6 32 -25 c17 -15 34 -40
38 -56 l7 -30 31 16 c53 26 157 89 157 94 0 5 -64 50 -71 50 -2 -1 -15 -9 -27
-20z"/>
<path d="M7286 5881 c-10 -16 -171 -118 -243 -155 -86 -43 -194 -80 -293 -101
-79 -17 -255 -20 -310 -6 -93 24 -88 25 -100 -19 -10 -36 -8 -43 16 -80 14
-22 31 -37 37 -33 5 3 7 1 4 -4 -9 -15 47 -126 58 -116 4 4 5 3 2 -3 -4 -7 7
-43 24 -80 46 -103 46 -102 73 -199 41 -147 58 -260 63 -427 6 -175 -5 -297
-42 -453 -73 -305 -231 -589 -454 -810 -44 -43 -77 -83 -74 -89 3 -5 1 -6 -6
-2 -7 5 -27 -7 -50 -27 -91 -82 -308 -210 -446 -262 -211 -80 -347 -107 -585
-112 -234 -6 -383 14 -569 76 -331 110 -600 297 -817 568 -41 51 -74 96 -74
101 0 5 -11 21 -25 36 -13 14 -21 26 -18 26 3 0 1 6 -5 13 -18 22 -108 208
-128 264 -10 28 -22 49 -28 46 -5 -3 -6 -2 -3 4 9 14 -17 95 -28 86 -4 -4 -5
-3 -2 3 4 6 -5 67 -20 135 -23 108 -27 148 -27 314 -1 207 5 355 15 349 4 -2
12 24 19 59 21 100 79 265 125 357 60 120 79 154 89 161 5 4 8 17 8 30 0 27
-20 109 -27 109 -2 0 -30 -7 -62 -15 -129 -34 -340 -12 -514 52 -71 26 -232
112 -294 158 -51 37 -52 37 -79 -9 -35 -60 -33 -79 14 -122 22 -21 84 -81 138
-134 53 -52 112 -102 130 -109 37 -16 38 -23 13 -93 -42 -113 -111 -384 -111
-432 0 -3 -24 -6 -54 -6 -30 0 -91 -11 -137 -24 -46 -13 -122 -34 -168 -46
-46 -11 -90 -27 -97 -35 -11 -11 -14 -59 -14 -223 0 -239 -3 -229 90 -251 30
-7 101 -26 158 -42 56 -15 124 -29 150 -30 75 -2 82 -6 82 -44 0 -64 96 -411
122 -439 14 -17 9 -23 -39 -52 -58 -34 -226 -202 -217 -216 4 -7 2 -8 -4 -4
-14 8 -82 -59 -82 -80 0 -17 43 -98 119 -224 28 -47 57 -97 63 -112 22 -49 52
-53 169 -19 57 16 133 37 169 47 36 9 85 28 109 42 l45 25 29 -34 c108 -124
162 -179 175 -174 7 3 10 0 6 -6 -6 -10 23 -40 115 -119 l43 -37 -16 -32 c-9
-17 -14 -37 -10 -43 4 -6 3 -8 -3 -5 -14 9 -16 3 -69 -192 -24 -90 -42 -171
-39 -180 6 -19 11 -22 163 -108 23 -13 48 -21 54 -17 7 4 8 3 4 -4 -8 -13 128
-92 158 -92 25 0 271 242 297 293 11 21 26 40 32 43 7 2 44 -7 83 -22 63 -24
247 -73 334 -89 19 -3 44 -8 55 -10 11 -2 23 -4 28 -4 4 -1 7 -27 7 -58 0 -55
67 -329 93 -383 l13 -25 215 -3 c176 -2 218 0 228 12 21 25 101 342 101 399
l0 55 68 12 c98 17 244 56 345 92 84 30 88 30 107 13 11 -10 20 -25 20 -33 0
-23 274 -292 298 -292 11 0 58 22 104 49 46 26 124 72 175 102 54 31 94 61 97
73 3 10 -11 78 -30 150 -50 187 -64 227 -76 220 -7 -4 -8 -2 -4 4 4 7 -1 26
-11 43 l-18 31 50 41 c66 56 198 187 267 266 l56 64 43 -25 c25 -15 98 -40
164 -58 66 -17 144 -38 174 -47 66 -19 89 -9 120 51 28 54 77 140 124 217 64
104 66 96 -80 245 -70 71 -147 141 -170 154 -41 22 -56 54 -36 74 22 22 123
401 123 462 0 2 28 4 63 4 34 0 91 9 127 20 36 11 103 29 150 41 142 36 131
14 128 267 l-3 216 -25 12 c-48 24 -339 94 -387 94 l-49 0 -28 128 c-15 70
-45 181 -67 246 -22 66 -37 126 -35 133 3 6 22 21 43 32 53 27 293 273 293
299 0 17 -57 122 -66 122 -2 0 -5 -4 -8 -9z"/>
</g>
</svg>
